<?xml version="1.0" encoding="UTF-8"?>
<svg xmlns="http://www.w3.org/2000/svg"
     width="284" height="179"
     viewBox="0 0 1136.000000 716.000000">
  <!-- White background -->
  <rect width="1136.000000" height="716.000000" fill="#FFFFFF"/>
  <!-- Logo in sage green #2E6B4F -->
  <g transform="translate(0.000000,716.000000) scale(0.100000,-0.100000)"
fill="#2E6B4F" stroke="none">
<path d="M6154 4993 c-19 -21 -37 -47 -40 -58 -4 -11 -15 -31 -25 -44 -11 -13
-19 -31 -19 -40 -1 -9 -9 -34 -20 -56 -28 -57 -27 -165 2 -242 31 -80 70 -137
150 -215 47 -46 68 -74 68 -91 0 -13 9 -36 20 -50 25 -31 25 -60 2 -95 -34
-52 -76 -134 -119 -232 -8 -19 -19 -42 -23 -50 -6 -13 -67 -15 -444 -18 -476
-2 -462 -4 -431 54 8 16 15 38 15 49 0 11 13 43 29 70 27 49 29 50 86 57 112
14 241 86 292 162 70 105 94 179 100 309 5 94 -6 129 -46 142 -22 7 -188 -39
-210 -59 -9 -7 -28 -16 -43 -20 -32 -7 -115 -86 -151 -143 -50 -80 -71 -158
-73 -280 -1 -80 -6 -120 -16 -135 -8 -13 -28 -61 -43 -108 -15 -47 -33 -89
-39 -95 -7 -6 -123 -9 -318 -7 -245 2 -308 5 -308 16 0 22 35 46 81 54 75 15
152 76 194 156 22 41 25 60 25 141 0 111 -11 131 -69 120 -19 -4 -44 -13 -55
-21 -11 -8 -26 -14 -33 -14 -25 0 -143 -93 -143 -113 0 -4 -9 -20 -20 -35 -16
-22 -21 -47 -24 -132 -3 -85 -8 -113 -26 -142 -21 -36 -22 -36 -73 -31 -43 4
-55 2 -70 -14 -23 -27 -12 -51 26 -58 18 -3 572 -4 1231 -3 1129 3 1199 4
1210 21 8 12 8 22 0 35 -10 15 -37 17 -285 20 -150 1 -277 6 -281 10 -7 7 11
73 37 127 7 17 16 37 20 45 3 8 22 40 43 71 128 195 166 234 210 222 15 -5 86
-7 157 -7 118 1 135 4 186 28 64 30 166 118 206 179 15 23 39 67 52 97 13 30
32 73 42 96 24 51 25 117 3 135 -12 10 -56 13 -178 13 -144 -1 -165 -3 -203
-22 -23 -12 -47 -22 -52 -22 -16 0 -75 -43 -123 -90 -53 -53 -110 -139 -128
-195 -7 -22 -19 -49 -26 -60 -8 -11 -14 -37 -14 -57 0 -31 -8 -47 -40 -82 -22
-24 -40 -48 -40 -55 0 -19 -28 -12 -44 11 -20 28 -21 94 -3 105 13 8 30 35 58
93 45 94 49 108 49 192 0 91 -21 154 -77 237 -41 60 -144 161 -165 161 -10 0
-35 -17 -54 -37z m115 -98 c22 -24 41 -51 41 -59 0 -8 7 -19 16 -24 8 -5 19
-24 24 -43 5 -19 16 -54 25 -79 18 -49 15 -103 -10 -151 -8 -15 -15 -38 -15
-50 0 -28 -39 -91 -54 -86 -6 2 -13 21 -16 43 -3 21 -10 46 -15 54 -6 8 -12
96 -15 195 -5 165 -7 180 -24 183 -10 2 -23 -1 -28 -6 -26 -26 -28 -255 -2
-379 8 -40 -8 -44 -31 -9 -26 39 -65 156 -65 193 0 76 79 263 111 263 9 0 35
-20 58 -45z m852 -155 c18 -10 18 -13 4 -40 -8 -16 -15 -42 -15 -58 0 -16 -7
-35 -15 -42 -8 -6 -17 -21 -21 -32 -6 -20 -40 -74 -72 -116 -21 -27 -98 -82
-115 -82 -7 0 -29 -9 -50 -20 -31 -17 -56 -20 -152 -20 -63 0 -115 4 -115 8 0
13 161 153 190 165 14 6 32 17 40 24 28 22 111 63 129 63 10 0 29 9 42 19 14
10 36 21 49 23 28 3 41 45 18 59 -18 12 -69 0 -94 -22 -11 -10 -30 -19 -41
-19 -11 0 -32 -9 -46 -20 -14 -11 -31 -20 -39 -20 -7 0 -24 -9 -38 -20 -14
-11 -30 -20 -36 -20 -6 0 -19 -9 -29 -20 -10 -11 -21 -20 -25 -20 -4 0 -27
-18 -51 -40 -47 -42 -59 -48 -59 -27 0 55 149 230 207 243 15 3 53 14 83 25
62 20 218 26 251 9z m-1412 -197 c19 -17 20 -23 10 -103 -6 -50 -19 -98 -30
-116 -10 -17 -19 -38 -19 -46 0 -22 -73 -95 -112 -113 -18 -8 -40 -19 -48 -24
-32 -18 -111 -51 -125 -51 -21 0 -18 24 5 45 11 10 20 23 20 30 0 7 9 20 20
30 11 10 20 23 20 29 0 22 109 141 183 200 32 26 47 46 47 62 0 36 -18 38 -62
9 -45 -30 -188 -167 -188 -181 -1 -5 -17 -27 -36 -49 -36 -40 -36 -40 -29 9 4
27 21 74 37 104 35 61 104 132 128 132 8 0 27 8 40 17 13 10 43 20 65 24 22 4
43 7 46 8 4 0 16 -7 28 -16z m-999 -360 c0 -3 -7 -13 -15 -22 -46 -47 -96
-108 -101 -123 -5 -18 -24 -25 -24 -9 0 21 55 104 79 119 14 9 30 22 34 29 8
14 27 18 27 6z m49 -129 c-30 -64 -149 -155 -149 -115 0 19 65 106 112 153 27
26 49 57 50 70 1 13 3 4 5 -20 3 -30 -2 -57 -18 -88z"/>
<path d="M2038 3190 c-16 -14 -18 -38 -19 -275 0 -234 1 -261 17 -272 12 -9
53 -11 145 -9 117 3 131 6 180 32 75 41 119 106 130 193 10 81 -2 174 -24 199
-9 10 -17 23 -17 28 0 24 -78 82 -130 97 -77 22 -258 27 -282 7z m267 -141
c40 -35 55 -81 52 -155 -4 -79 -47 -124 -138 -139 -57 -10 -62 4 -61 165 0 77
3 144 7 150 3 5 28 10 55 10 41 0 55 -5 85 -31z"/>
<path d="M2831 3203 c-71 -2 -130 -8 -138 -15 -10 -8 -13 -69 -13 -274 0 -250
1 -264 19 -274 11 -5 82 -10 160 -10 130 0 141 1 154 21 11 15 13 29 6 52 -14
49 -33 58 -109 51 -72 -7 -100 6 -100 47 0 49 16 59 93 59 44 0 78 5 85 12 16
16 15 75 0 85 -7 4 -49 10 -93 13 -80 5 -80 5 -83 43 -5 58 8 67 98 67 104 0
110 3 110 55 0 47 -20 76 -48 73 -9 -1 -73 -4 -141 -5z"/>
<path d="M3325 3202 c-87 -31 -130 -84 -130 -162 0 -43 5 -60 21 -76 12 -12
23 -26 25 -31 7 -15 72 -50 109 -58 19 -4 49 -14 65 -23 17 -8 37 -18 45 -22
39 -18 6 -100 -41 -100 -31 0 -75 27 -99 60 -14 19 -30 30 -46 30 -31 0 -94
-26 -94 -39 0 -48 66 -126 120 -141 47 -13 172 -13 207 1 40 15 91 67 104 107
19 58 4 113 -45 165 -28 28 -56 47 -77 52 -19 4 -62 16 -96 27 -57 19 -63 23
-63 49 0 21 9 33 35 49 42 26 65 21 103 -26 27 -33 33 -35 77 -32 64 4 77 24
50 75 -11 21 -39 50 -62 67 -35 24 -53 29 -115 32 -40 2 -82 0 -93 -4z"/>
<path d="M3967 3197 c-20 -16 -57 -87 -57 -109 0 -10 -9 -35 -20 -55 -11 -21
-20 -45 -20 -55 0 -9 -4 -20 -10 -23 -5 -3 -14 -25 -20 -48 -6 -23 -16 -55
-24 -72 -79 -177 -78 -208 7 -203 50 3 51 4 75 50 13 26 34 50 45 54 33 11
178 6 193 -7 7 -6 16 -26 20 -44 4 -24 14 -37 35 -45 30 -13 95 -8 111 8 9 9
-6 50 -38 114 -8 14 -14 34 -14 45 0 10 -8 34 -19 53 -10 19 -22 51 -26 70 -4
19 -13 46 -20 60 -17 34 -53 129 -61 162 -3 15 -11 31 -17 36 -20 15 -124 22
-140 9z m92 -234 c33 -98 31 -103 -34 -103 -54 0 -55 1 -55 28 0 16 7 37 15
48 8 10 15 29 15 42 0 31 20 66 30 56 5 -5 18 -37 29 -71z"/>
<path d="M4499 3202 c-8 -3 -17 -10 -21 -16 -14 -20 -9 -531 4 -544 18 -18 94
-15 113 5 14 14 16 33 14 116 -5 123 7 134 51 45 17 -35 48 -88 69 -118 35
-51 41 -55 81 -58 65 -5 90 4 90 32 0 13 -7 29 -15 36 -20 17 -115 159 -115
172 0 6 17 26 38 44 52 44 67 95 48 159 -14 46 -50 95 -69 95 -6 0 -18 6 -26
14 -16 14 -229 28 -262 18z m188 -122 c45 -17 55 -38 35 -72 -18 -31 -43 -41
-88 -36 -25 3 -29 8 -32 40 -6 69 22 91 85 68z"/>
<path d="M5550 3201 c-58 -13 -114 -47 -152 -93 -85 -104 -86 -276 -1 -376 97
-114 267 -143 384 -63 44 29 109 96 109 111 0 19 -76 70 -104 70 -2 0 -23 -19
-45 -42 -38 -40 -43 -42 -108 -46 -63 -4 -72 -2 -101 23 -43 36 -67 115 -53
175 26 118 176 156 259 65 32 -35 37 -37 79 -31 25 3 49 8 54 12 15 9 11 71
-6 78 -8 3 -15 11 -15 19 0 16 -30 43 -82 75 -42 26 -153 38 -218 23z"/>
<path d="M6235 3201 c-78 -19 -121 -55 -175 -147 -26 -45 -30 -61 -30 -130 0
-107 12 -141 67 -201 90 -96 229 -124 348 -69 75 34 101 59 136 131 24 50 29
72 29 135 0 47 -6 84 -15 100 -8 14 -19 36 -25 50 -18 41 -72 91 -125 116 -52
25 -143 31 -210 15z m193 -176 c41 -43 42 -46 42 -109 0 -64 -1 -67 -44 -112
-45 -46 -45 -46 -117 -42 -69 4 -73 5 -105 43 -38 45 -41 58 -34 136 5 49 10
60 44 90 51 45 62 49 121 42 43 -4 56 -11 93 -48z"/>
<path d="M6801 3194 c-23 -17 -23 -17 -20 -233 4 -216 4 -216 34 -254 46 -58
87 -79 163 -85 91 -6 141 9 188 57 65 68 73 100 73 311 1 102 -3 191 -7 198
-12 17 -107 21 -124 4 -10 -10 -13 -59 -14 -190 -1 -223 -12 -252 -95 -252
-18 0 -39 10 -54 25 -25 24 -25 25 -25 219 0 107 -3 197 -7 199 -5 3 -26 8
-48 11 -29 5 -46 2 -64 -10z"/>
<path d="M7445 3193 c-13 -12 -15 -58 -14 -276 0 -167 4 -266 11 -274 11 -13
84 -18 112 -7 13 5 16 25 16 121 0 87 3 114 13 111 10 -4 64 -85 83 -128 4 -8
21 -36 37 -62 30 -48 30 -48 99 -48 78 0 95 15 60 53 -34 37 -122 175 -122
192 0 8 11 21 25 27 28 12 75 86 75 116 0 33 -29 105 -53 130 -42 45 -72 54
-204 57 -99 2 -126 0 -138 -12z m259 -148 c4 -11 -5 -27 -23 -46 -23 -23 -38
-29 -71 -29 -41 0 -41 0 -38 53 3 51 4 52 38 58 39 6 84 -12 94 -36z"/>
<path d="M8063 3199 c-27 -10 -25 10 -23 -324 1 -165 5 -232 13 -237 7 -4 75
-8 153 -8 138 0 141 0 187 29 37 24 48 38 57 73 19 68 6 126 -37 170 -34 35
-35 39 -21 55 24 27 32 88 18 138 -10 36 -21 50 -61 76 -45 29 -55 31 -156 34
-60 2 -118 -1 -130 -6z m202 -127 c32 -23 35 -39 14 -66 -16 -20 -29 -26 -60
-26 -33 0 -40 4 -45 25 -3 14 -3 36 0 50 5 21 12 25 44 25 20 0 42 -4 47 -8z
m48 -234 c19 -25 19 -28 4 -51 -13 -20 -26 -26 -69 -29 -29 -2 -59 0 -65 5
-14 10 -18 89 -6 101 4 4 32 6 62 4 45 -3 57 -7 74 -30z"/>
<path d="M8660 3197 c-25 -13 -25 -13 -28 -278 -3 -304 -6 -292 80 -287 53 3
53 3 56 277 2 193 -1 278 -9 287 -14 17 -66 18 -99 1z"/>
<path d="M9001 3196 c-8 -9 -11 -94 -9 -287 3 -274 3 -274 56 -277 83 -5 84
-2 82 167 -1 80 -1 152 -1 159 2 32 21 8 101 -136 27 -47 93 -146 113 -169 17
-19 31 -23 77 -23 89 0 87 -8 86 294 -1 242 -3 259 -21 272 -26 19 -78 18
-104 -3 -20 -17 -21 -28 -22 -165 0 -82 -5 -148 -10 -148 -8 0 -26 26 -88 127
-14 23 -45 73 -69 111 -24 38 -54 74 -68 81 -35 15 -109 14 -123 -3z"/>
<path d="M2814 2176 c-21 -21 -34 -44 -34 -59 0 -33 52 -77 90 -77 16 0 40 -4
55 -10 22 -8 24 -13 15 -29 -14 -28 -75 -38 -99 -17 -22 20 -45 21 -61 2 -9
-12 -4 -20 31 -45 45 -33 50 -34 96 -25 38 8 103 67 103 94 0 35 -53 80 -94
80 -39 0 -68 23 -59 46 4 11 13 14 32 9 75 -18 81 -18 81 4 0 35 -35 61 -81
61 -33 0 -47 -6 -75 -34z"/>
<path d="M3038 2202 c-43 -9 -8 -62 41 -62 26 0 33 -26 28 -105 -5 -71 5 -105
32 -105 15 0 20 10 25 45 4 25 5 49 1 55 -3 5 -3 32 1 60 6 43 10 50 28 50 12
0 27 5 34 12 16 16 15 48 0 49 -38 3 -175 4 -190 1z"/>
<path d="M3313 2204 c-29 -7 -43 -56 -43 -156 0 -90 12 -131 38 -126 13 2 18
16 22 53 5 45 7 50 32 53 22 3 32 -4 52 -37 28 -44 61 -71 88 -71 26 0 22 30
-11 69 -28 34 -28 34 -5 69 31 45 30 75 -4 113 -24 26 -35 31 -87 34 -33 2
-70 1 -82 -1z m125 -92 c-3 -13 -14 -17 -53 -17 -44 0 -50 3 -53 22 -3 19 2
22 35 25 47 4 75 -8 71 -30z"/>
<path d="M3913 2180 c-26 -19 -46 -45 -57 -73 -16 -42 -16 -47 1 -92 15 -41
26 -53 71 -77 42 -23 59 -28 88 -22 68 13 106 84 45 84 -16 0 -34 -7 -41 -15
-21 -26 -57 -18 -84 18 -31 41 -33 71 -6 115 23 37 64 43 105 16 30 -20 45
-11 45 26 0 59 -98 71 -167 20z"/>
<path d="M4167 2203 c-61 -7 -60 -58 1 -65 27 -3 27 -4 32 -100 5 -102 6 -105
30 -108 34 -5 37 0 35 78 -3 107 0 117 46 135 35 14 51 39 32 50 -13 8 -136
14 -176 10z"/>
<path d="M4702 2193 c-18 -16 -22 -32 -26 -130 -5 -118 4 -153 38 -140 11 4
16 18 16 45 0 64 44 84 77 36 30 -45 84 -95 96 -91 22 7 19 38 -8 72 -26 35
-26 35 0 80 31 53 28 72 -21 114 -30 27 -42 31 -93 31 -41 0 -65 -5 -79 -17z
m136 -80 c3 -21 0 -23 -47 -23 -54 0 -70 12 -50 36 8 10 26 14 53 12 34 -2 42
-7 44 -25z"/>
<path d="M5005 2203 c-38 -9 -45 -32 -45 -143 0 -70 4 -112 13 -124 19 -26
168 -34 191 -10 16 15 16 18 0 35 -13 14 -31 19 -69 19 -85 0 -98 44 -15 52
30 3 35 7 35 28 0 22 -5 26 -42 31 -24 3 -46 8 -50 12 -14 15 20 32 75 37 53
5 57 7 60 31 2 20 -2 28 -20 33 -26 6 -102 6 -133 -1z"/>
<path d="M5420 2203 c-8 -3 -18 -11 -22 -17 -11 -16 -9 -238 2 -256 6 -11 32
-16 90 -18 87 -4 113 6 108 42 -3 18 -10 21 -63 23 -33 1 -66 2 -72 2 -7 1
-13 12 -13 25 0 21 6 24 50 30 40 5 50 11 50 25 0 20 -26 31 -73 31 -25 0 -28
3 -25 28 2 21 8 26 23 24 84 -13 152 28 96 58 -21 10 -125 13 -151 3z"/>
<path d="M5955 2198 c-32 -18 -35 -28 -35 -139 0 -137 4 -142 103 -147 77 -4
117 7 117 33 0 21 -20 29 -85 35 -52 4 -60 8 -60 25 0 16 8 21 37 23 70 6 73
62 3 62 -18 0 -38 6 -44 14 -17 20 15 36 73 36 50 0 72 21 55 53 -8 13 -24 17
-77 17 -37 0 -76 -6 -87 -12z"/>
<path d="M6237 2183 c-39 -30 -77 -93 -77 -130 0 -72 111 -154 186 -137 39 10
81 54 70 73 -10 16 -62 13 -76 -4 -19 -23 -43 -18 -78 18 -37 39 -40 63 -11
111 24 41 51 46 101 20 30 -15 32 -15 45 2 17 24 17 30 -7 54 -31 31 -106 28
-153 -7z"/>
<path d="M6753 2195 c-17 -12 -27 -13 -47 -4 -43 20 -56 -1 -56 -88 0 -84 -23
-133 -63 -133 -44 0 -51 14 -58 115 -7 102 -17 127 -47 109 -14 -10 -17 -27
-16 -114 1 -102 1 -102 35 -132 47 -43 98 -48 147 -15 50 36 71 79 74 157 3
71 -1 67 71 53 33 -6 36 -18 39 -133 3 -74 5 -85 22 -88 29 -6 36 16 36 122 0
98 0 98 25 94 30 -6 48 12 43 44 -3 22 -8 23 -93 26 -68 2 -95 -1 -112 -13z"/>
<path d="M7017 2195 c-21 -21 -26 -56 -24 -162 1 -56 7 -97 14 -104 18 -18
169 -25 188 -9 37 31 0 60 -75 60 -40 0 -59 4 -63 14 -7 18 12 36 38 36 44 0
66 12 63 34 -2 17 -11 22 -48 24 -84 6 -71 52 14 52 54 0 76 12 76 41 0 23
-20 29 -100 29 -47 0 -73 -5 -83 -15z"/>
<path d="M7452 2182 c-32 -27 -40 -58 -26 -97 9 -23 78 -55 119 -55 29 0 36
-4 33 -17 -2 -10 -16 -24 -31 -33 -25 -14 -30 -13 -58 3 -68 38 -100 11 -46
-40 28 -25 46 -33 74 -33 59 0 133 61 133 110 0 5 -12 22 -26 39 -19 23 -34
31 -59 31 -46 0 -65 9 -65 31 0 27 23 33 57 16 37 -20 67 -6 57 26 -9 34 -34
47 -83 47 -35 0 -54 -7 -79 -28z"/>
<path d="M7724 2179 c-22 -16 -45 -42 -51 -57 -23 -50 7 -172 43 -172 9 0 27
-9 41 -20 37 -29 90 -26 131 8 58 48 13 85 -55 46 -27 -16 -30 -15 -65 7 -34
22 -37 28 -38 71 0 40 4 49 29 67 31 22 76 28 86 11 8 -13 65 -13 65 1 0 15
-21 53 -34 61 -6 4 -34 8 -62 8 -42 0 -58 -5 -90 -31z"/>
<path d="M8478 2199 c-16 -9 -18 -26 -18 -133 0 -153 2 -156 111 -156 52 0 81
5 97 16 22 15 22 17 6 35 -13 14 -31 19 -74 19 -31 0 -61 5 -67 11 -18 18 -3
39 26 39 15 0 36 6 46 14 16 12 17 16 6 30 -7 9 -28 16 -46 16 -35 0 -52 21
-32 39 7 5 35 11 62 13 44 3 50 6 53 27 2 13 -2 28 -10 32 -18 12 -139 11
-160 -2z"/>
<path d="M3565 2189 c-4 -5 -8 -51 -8 -100 -2 -90 -2 -90 46 -136 45 -42 51
-45 89 -39 22 4 57 20 79 38 39 31 39 31 39 124 0 105 -5 124 -30 124 -25 0
-30 -19 -30 -109 0 -68 -3 -80 -23 -99 -32 -30 -61 -28 -90 8 -22 26 -25 36
-20 87 3 32 0 70 -6 86 -11 27 -34 36 -46 16z"/>
<path d="M4392 2188 c-13 -13 -17 -132 -6 -187 8 -40 75 -91 119 -91 39 0 95
40 112 81 7 17 13 68 13 115 0 83 0 84 -25 84 -35 0 -48 -32 -43 -104 6 -75
-16 -116 -62 -116 -41 0 -54 29 -60 135 -4 70 -8 90 -20 93 -9 1 -21 -3 -28
-10z"/>
<path d="M5657 2194 c-8 -8 20 -64 44 -87 25 -23 24 -39 -4 -74 -57 -70 -72
-113 -39 -113 21 1 55 28 71 58 6 12 20 22 31 22 11 0 25 -10 31 -22 16 -30
50 -57 72 -58 32 0 17 43 -40 113 -28 34 -28 42 -4 66 29 29 53 83 41 95 -14
14 -58 -9 -72 -39 -14 -31 -38 -29 -54 4 -18 35 -58 54 -77 35z"/>
<path d="M8037 2193 c-4 -3 -7 -17 -7 -31 0 -13 -9 -35 -20 -49 -11 -14 -20
-33 -20 -43 0 -10 -8 -28 -19 -41 -22 -29 -36 -95 -21 -104 6 -3 24 1 42 9 39
20 118 21 144 1 46 -35 77 -6 51 48 -8 18 -20 43 -26 57 -6 14 -15 32 -19 40
-13 23 -34 62 -50 93 -13 25 -40 36 -55 20z m47 -135 c18 -25 13 -38 -15 -38
-14 0 -19 7 -19 30 0 35 13 39 34 8z"/>
<path d="M8236 2185 c-11 -31 -6 -219 7 -245 11 -23 19 -25 89 -28 59 -2 79 1
92 13 12 12 13 21 6 36 -9 15 -22 19 -70 19 -70 0 -69 -2 -72 130 -3 78 -5 85
-24 88 -13 2 -24 -4 -28 -13z"/>
<path d="M7247 1974 c-4 -4 -7 -18 -7 -31 0 -17 6 -23 21 -23 16 0 20 5 17 27
-3 26 -18 39 -31 27z"/>
<path d="M5200 1956 c-10 -13 -9 -17 4 -22 22 -8 49 3 44 19 -7 18 -33 20 -48
3z"/>
<path d="M8711 1956 c-10 -12 -8 -17 10 -26 17 -9 23 -9 29 1 19 30 -16 53
-39 25z"/>
</g>
</svg>
